PathFileType	4	(X/Y/Z)	SUBJ89_3_walk_RCNL2025.trc
DataRate	CameraRate	NumFrames	NumMarkers	Units	OrigDataRate	OrigDataStartFrame	OrigNumFrames
100	100	9	25	mm	100	86	227
Frame#	Time	R_Shoulder			L_Shoulder			C7			J_Notch			R_Elbow			L_Elbow			R_Wrist			L_Wrist			R_Asis			L_Asis			Sacral			Thoracic			Sternum			R_Thigh_Lateral			R_Knee_Lateral			R_Shank_Lateral			R_Ankle_Lateral			R_Heel			R_Toe			L_Thigh_Lateral			L_Knee_Lateral			L_Shank_Lateral			L_Ankle_Lateral			L_Heel			L_Toe		
		X1	Y1	Z1	X2	Y2	Z2	X3	Y3	Z3	X4	Y4	Z4	X5	Y5	Z5	X6	Y6	Z6	X7	Y7	Z7	X8	Y8	Z8	X9	Y9	Z9	X10	Y10	Z10	X11	Y11	Z11	X12	Y12	Z12	X13	Y13	Z13	X14	Y14	Z14	X15	Y15	Z15	X16	Y16	Z16	X17	Y17	Z17	X18	Y18	Z18	X19	Y19	Z19	X20	Y20	Z20	X21	Y21	Z21	X22	Y22	Z22	X23	Y23	Z23	X24	Y24	Z24	X25	Y25	Z25
86	0.85000000	128.908310	1404.921021	-45.101070	106.165283	1408.109131	-458.494720	58.171185	1496.979858	-250.795120	172.342911	1368.441162	-251.914749	-10.135365	1099.461914	13.206984	120.701431	1068.705688	-514.593933	42.491364	832.339081	17.888650	277.948547	856.491882	-460.089371	162.720581	972.419861	-129.495499	156.089813	974.508057	-368.694397	-8.918059	1032.261108	-231.967926	-30.864452	1317.752808	-243.466064	203.350433	1220.871338	-261.042908	219.650528	608.024292	-53.914276	263.325104	502.754272	-110.312737	292.915649	282.630951	-66.951408	346.531219	80.480721	-137.372055	317.433563	62.777630	-186.756439	501.120026	90.141075	-152.226776	38.162540	551.867004	-434.078827	5.636598	472.709900	-354.890747	-93.745300	256.416077	-393.340210	-154.778305	70.802826	-313.197815	-192.564606	84.644875	-266.699127	-3.554584	34.001179	-300.548157
87	0.86000000	143.156143	1401.446411	-43.935810	120.735786	1405.455322	-457.357574	72.807541	1494.229858	-249.523300	186.881927	1365.569458	-250.847595	3.771807	1096.034546	13.376501	139.121109	1066.509521	-514.180054	54.997602	828.661438	18.964464	300.012451	857.460266	-457.985519	177.561859	969.058960	-129.286316	170.500076	971.903137	-368.658508	5.642748	1029.531738	-231.357468	-16.317419	1315.191650	-242.529907	217.910156	1218.015015	-260.269104	231.196274	603.630371	-53.959087	277.012238	499.919830	-110.948845	314.154419	280.739532	-67.267426	377.035583	80.194061	-137.299194	348.881348	61.348167	-186.849243	531.796265	95.397629	-151.598251	46.429169	550.550842	-434.196625	12.999572	471.738281	-354.877106	-90.445190	257.087128	-392.995789	-154.187347	72.299652	-312.606140	-191.632843	86.777679	-266.059296	-3.432279	33.973965	-300.490723
88	0.87000000	157.511642	1398.066772	-42.689335	135.542572	1402.937012	-456.109192	87.566490	1491.583740	-248.169525	201.560303	1362.814453	-249.685760	17.932901	1092.612305	13.543809	157.353851	1064.436768	-513.498047	67.815048	825.015045	20.021571	321.610596	858.353516	-456.019592	192.510483	965.897034	-129.071945	185.048279	969.364929	-368.598267	20.349926	1026.895508	-230.707672	-1.630627	1312.721558	-241.570755	232.617096	1215.288940	-259.411285	243.368622	599.600220	-54.060265	290.957428	497.270386	-111.571236	333.802948	278.892639	-67.817024	403.998016	79.913139	-137.618530	376.714081	60.229317	-187.358521	558.818481	99.367188	-151.187988	54.993748	549.330078	-434.355774	20.780663	470.808929	-354.890106	-86.790154	257.951874	-392.802460	-153.508606	74.116783	-312.295227	-190.645203	89.295357	-265.759216	-3.309377	33.963581	-300.483734
89	0.88000000	171.982605	1394.824097	-41.357170	150.585434	1400.619263	-454.736511	102.453148	1489.089233	-246.722397	216.388412	1360.227417	-248.423569	32.349529	1089.242676	13.712843	175.365219	1062.534058	-512.546814	80.956713	821.449097	21.056840	342.713211	859.186279	-454.201279	207.564240	963.015625	-128.859467	199.736923	966.910339	-368.516388	35.215462	1024.413818	-230.034088	13.207836	1310.385010	-240.590347	247.486832	1212.741699	-258.474396	256.379486	596.119629	-54.242779	305.261627	494.888733	-112.167404	351.851013	277.048462	-68.588516	427.232422	79.424400	-138.315994	400.678955	59.232445	-188.250336	582.063354	101.666855	-151.084473	64.020271	548.183533	-434.543701	29.106274	469.900665	-354.933868	-82.653290	259.012024	-392.799164	-152.702911	76.302567	-312.325928	-189.567322	92.261604	-265.868439	-3.190768	33.964085	-300.536621
90	0.89000000	186.576553	1391.756592	-39.935406	165.853683	1398.563354	-453.232117	117.473618	1486.793823	-245.170441	231.375473	1357.859009	-247.057144	47.023975	1085.970825	13.887577	193.121567	1060.845703	-511.332886	94.435238	818.009857	22.065847	363.291336	859.976593	-452.538147	222.718674	960.491455	-128.652283	214.572830	964.559509	-368.410767	50.248470	1022.148010	-229.353561	28.208340	1308.225708	-239.587479	262.534241	1210.419800	-257.463379	270.351196	593.330078	-54.520267	319.992096	492.848724	-112.727776	368.374908	275.209351	-69.541748	446.724060	78.588692	-139.335342	420.694733	58.228466	-189.442566	601.565491	102.041458	-151.367752	73.680328	547.085144	-434.744629	38.111546	468.990967	-355.013092	-77.916061	260.278442	-393.005829	-151.716827	78.912254	-312.729828	-188.335541	95.746330	-266.418152	-3.087355	33.962715	-300.651947
91	0.90000000	201.301239	1388.898926	-38.421757	181.327316	1396.825684	-451.595947	132.634308	1484.744141	-243.502991	246.528061	1355.757935	-245.585114	61.958344	1082.838989	14.071704	210.590378	1059.412720	-509.870056	108.262020	814.740723	23.043477	383.316177	860.745178	-451.035446	237.967682	958.394043	-128.449692	229.565933	962.337646	-368.273682	65.452995	1020.157532	-228.683929	43.377773	1306.289062	-238.558411	277.770905	1208.368652	-256.383087	285.307220	591.318970	-54.891308	335.175415	491.212402	-113.245056	383.536102	273.423401	-70.611046	462.635162	77.356247	-140.586182	436.865601	57.161491	-190.817383	617.521912	100.398346	-152.092270	84.139481	546.009033	-434.941589	47.934471	468.059723	-355.133545	-72.476517	261.776978	-393.419434	-150.478317	82.008148	-313.504089	-186.850113	99.823570	-267.394287	-3.015795	33.940422	-300.824249
92	0.91000000	216.164948	1386.283691	-36.816849	196.979385	1395.456665	-449.835815	147.940796	1482.986328	-241.711517	261.848450	1353.970215	-244.009537	77.153976	1079.888306	14.268250	227.740341	1058.272827	-508.179352	122.446541	811.683044	23.984551	402.758667	861.514984	-449.695877	253.303955	956.783752	-128.246262	244.726212	960.276489	-368.091675	80.825874	1018.496460	-228.043655	58.717609	1304.622070	-237.497787	293.202057	1206.631714	-255.239365	301.178223	590.119019	-55.338432	350.793091	490.026245	-113.713242	397.565430	271.775635	-71.713524	475.288849	75.766159	-141.958344	449.473419	56.048351	-192.240448	630.275757	96.823059	-153.272156	95.547264	544.934509	-435.118744	58.711479	467.092316	-355.303406	-66.251373	263.551300	-394.013855	-148.891754	85.657883	-314.611725	-184.970337	104.567566	-268.737396	-2.995732	33.874611	-301.040344
93	0.92000000	231.176407	1383.941528	-35.125664	212.778702	1394.499878	-447.967041	163.396317	1481.564575	-239.791183	277.333160	1352.537720	-242.336746	92.611183	1077.158569	14.479218	244.541580	1057.459839	-506.287872	136.996006	808.876587	24.884341	421.588913	862.310425	-448.519302	268.719269	955.709961	-128.031372	260.059448	958.413757	-367.846436	96.355255	1017.210754	-227.450729	74.222298	1303.271606	-236.400146	308.823822	1205.249634	-254.039764	317.819885	589.715088	-55.829945	366.780853	489.317200	-114.127235	410.733124	270.370178	-72.761597	485.131195	73.930412	-143.339722	458.946899	54.963211	-193.582703	640.281128	91.571495	-154.873245	108.031578	543.849487	-435.264709	70.574120	466.081238	-355.534607	-59.171871	265.661530	-394.743835	-146.833542	89.930321	-315.986816	-182.512939	110.046700	-270.349060	-3.043776	33.744312	-301.281372
94	0.93000000	246.344193	1381.902588	-33.358730	228.692657	1393.990967	-446.011108	178.999893	1480.518921	-237.742493	292.972198	1351.495972	-240.578247	108.329124	1074.689453	14.705377	260.966125	1057.003052	-504.227966	151.915493	806.360229	25.738847	439.776276	863.156006	-447.502869	284.204773	955.208801	-127.789040	275.562836	956.791931	-367.516571	112.020042	1016.334534	-226.920944	89.878273	1302.281738	-235.261536	324.621307	1204.257812	-252.794907	335.036163	590.053223	-56.324135	383.032074	489.088104	-114.483406	423.308716	269.306885	-73.677368	492.676514	72.005615	-144.633972	465.810486	54.010456	-194.739899	648.051392	85.038765	-156.814407	121.696030	542.752502	-435.375793	83.645790	465.026794	-355.844086	-51.175133	268.178375	-395.551636	-144.149139	94.889053	-317.542694	-179.254730	116.315376	-272.103241	-3.163701	33.537502	-301.526642
